<?xml version="1.0" standalone="no"?><!DOCTYPE svg PUBLIC "-//W3C//DTD SVG 1.1//EN" "http://www.w3.org/Graphics/SVG/1.1/DTD/svg11.dtd"><svg t="1576832122208" class="icon" viewBox="0 0 1024 1024" version="1.1" xmlns="http://www.w3.org/2000/svg" p-id="9907" xmlns:xlink="http://www.w3.org/1999/xlink" width="200" height="200"><defs><style type="text/css"></style></defs><path d="M318.976 149.333333H917.333333a85.333333 85.333333 0 0 1 85.333334 85.333334v554.666666a85.333333 85.333333 0 0 1-85.333334 85.333334H318.976a128 128 0 0 1-106.325333-56.746667L39.509333 559.488a85.333333 85.333333 0 0 1 0-94.976L212.650667 206.08A128 128 0 0 1 318.976 149.333333z m0 85.333334a42.666667 42.666667 0 0 0-35.434667 18.922666L110.4 512l173.141333 258.410667a42.666667 42.666667 0 0 0 35.434667 18.922666H917.333333V234.666667H318.976z m317.354667 277.333333l90.517333 90.517333a21.333333 21.333333 0 0 1 0 30.165334l-30.165333 30.165333a21.333333 21.333333 0 0 1-30.165334 0L576 572.330667l-90.517333 90.517333a21.333333 21.333333 0 0 1-30.165334 0l-30.165333-30.165333a21.333333 21.333333 0 0 1 0-30.165334L515.669333 512l-90.517333-90.517333a21.333333 21.333333 0 0 1 0-30.165334l30.165333-30.165333a21.333333 21.333333 0 0 1 30.165334 0L576 451.669333l90.517333-90.517333a21.333333 21.333333 0 0 1 30.165334 0l30.165333 30.165333a21.333333 21.333333 0 0 1 0 30.165334L636.330667 512z" p-id="9908"></path></svg>